<?xml version="1.0" encoding="utf-8"?>
<!-- Generator: Adobe Illustrator 27.6.1, SVG Export Plug-In . SVG Version: 6.00 Build 0)  -->
<svg version="1.1" id="Layer_1" xmlns="http://www.w3.org/2000/svg" xmlns:xlink="http://www.w3.org/1999/xlink" x="0px" y="0px"
	 viewBox="0 0 1990.91 856.62" style="enable-background:new 0 0 1990.91 856.62;" xml:space="preserve">
<style type="text/css">
	.st0{fill:#FFFFFF;}
	.st1{fill-rule:evenodd;clip-rule:evenodd;fill:#FFFFFF;}
</style>
<g>
	<g>
		<polygon class="st0" points="250.1,758.02 333.44,853.01 417.13,757.87 333.85,666.14 250.1,758.02 		"/>
		<path class="st0" d="M333.96,3.61c-67.16,0.21-128.1,18.07-178.78,49.26C76.27,101.44,22.09,180.91,7.06,264.98
			c-1.97,11.11-13.47,70.95,7.32,128.21h106.63c-25.03-66.6-21.3-149.83,21.49-208.88c29.07-40.12,74.5-67.46,122.73-81.29
			c68.91-19.76,148.76-9.29,207.49,32.15c58.19,41.08,87.75,111.19,86.72,179.74c-0.02,1.11-0.04,2.23-0.06,3.36l104.75-0.02
			c-0.6-141.74-92.85-247.22-207.72-291.85c-20.89-8.14-42.62-14.26-64.65-17.98c-11.24-1.91-22.56-3.3-33.89-4.07
			c-7.32-0.47-14.64-0.73-21.99-0.75H333.96L333.96,3.61z"/>
		<path class="st0" d="M405.8,332.63v74.91h133.26c0.19,0-1.56,5.89-2.08,7.6c-0.79,2.68-1.63,5.33-2.53,7.96
			c-9.4,27.62-25.33,53.28-44.59,76.43c-11.56,13.89-43.37,57.76-66.66,51.91c-7.04-1.76-13.42-6.32-19.33-11.41
			c-16.51-14.24-56.24-64.82-70.35-82.57c-7.47,10.38-65.04,92.59-90.62,94.41c-15.24,1.09-28.13-8.28-38.21-18.3
			c-34.72-34.49-61.55-77.65-77.86-123.03c-0.34-0.98-0.71-1.99-1.05-3H19.37c0,0,4.15,10.58,9.14,21.71
			c26.38,58.85,60.07,114.4,97.19,167.47c36.16,51.7,75.16,101.73,115.2,150.65l92.95-101.3c0,0,92.31,101,92.35,100.98
			c15.11-16.36,28.41-34.19,42.02-51.72c65.34-84.24,133.91-169.79,173.51-268.9c8.03-20.1,14.47-40.8,18.26-62.06
			c1.88-10.47,3.04-21.09,3.32-31.73H405.8L405.8,332.63z M539.07,407.53C538.04,407.53,539.07,407.53,539.07,407.53L539.07,407.53z
			"/>
	</g>
	<g>
		<g>
			<path class="st0" d="M1139.37,735c-9.33,0-17.91-1.49-25.78-4.46c-7.87-2.98-14.71-7.15-20.46-12.53
				c-5.78-5.38-10.27-11.73-13.48-19.03c-3.2-7.3-4.81-15.25-4.81-23.89c0-8.64,1.6-16.6,4.81-23.89c3.21-7.3,7.73-13.62,13.56-19
				c5.81-5.41,12.68-9.59,20.55-12.56c7.87-2.95,16.45-4.44,25.78-4.44c9.33,0,17.86,1.4,25.61,4.21
				c7.75,2.8,14.36,7.07,19.86,12.79l-8.04,7.9c-5.15-4.95-10.79-8.47-16.97-10.62c-6.18-2.12-12.82-3.18-19.95-3.18
				c-7.55,0-14.54,1.2-20.89,3.61c-6.35,2.4-11.87,5.84-16.6,10.27c-4.72,4.44-8.41,9.59-11.02,15.48
				c-2.63,5.89-3.95,12.36-3.95,19.43c0,6.95,1.32,13.42,3.95,19.35c2.6,5.95,6.3,11.16,11.02,15.57
				c4.72,4.44,10.24,7.87,16.6,10.27c6.35,2.4,13.28,3.63,20.72,3.63c7.01,0,13.62-1.03,19.86-3.03
				c6.24-2.03,11.96-5.44,17.23-10.27l7.33,9.41c-5.81,4.95-12.65,8.67-20.46,11.19C1156.02,733.74,1147.87,735,1139.37,735
				L1139.37,735z M1171.88,718.49v-43.41h12.42v44.93L1171.88,718.49L1171.88,718.49z"/>
			<path class="st0" d="M1218.23,733.97v-88.34h11.88v24.07l-1.23-4.21c2.58-6.73,6.9-11.88,12.96-15.4
				c6.04-3.55,13.56-5.29,22.55-5.29v11.59c-0.46,0-0.94-0.03-1.4-0.09c-0.46-0.06-0.94-0.06-1.4-0.06
				c-9.67,0-17.26,2.83-22.72,8.47c-5.49,5.67-8.21,13.73-8.21,24.15v45.1H1218.23L1218.23,733.97z"/>
			<path class="st0" d="M1323.48,734.83c-8.84,0-16.8-1.95-23.87-5.81c-7.04-3.86-12.62-9.21-16.68-16
				c-4.09-6.78-6.12-14.54-6.12-23.29c0-8.87,2.03-16.65,6.12-23.41c4.06-6.73,9.61-11.99,16.6-15.8c6.98-3.83,15-5.72,23.95-5.72
				c9.1,0,17.17,1.89,24.21,5.72c7.07,3.81,12.59,9.07,16.63,15.8c4.01,6.75,6.04,14.54,6.04,23.41c0,8.76-2.03,16.51-6.04,23.29
				c-4.03,6.78-9.59,12.13-16.71,16C1340.51,732.88,1332.47,734.83,1323.48,734.83L1323.48,734.83z M1323.48,724.21
				c6.64,0,12.53-1.43,17.66-4.29c5.15-2.86,9.19-6.9,12.16-12.1c2.98-5.21,4.46-11.25,4.46-18.08c0-6.95-1.49-13.02-4.46-18.17
				c-2.98-5.18-7.01-9.19-12.16-12.05c-5.12-2.86-10.96-4.29-17.48-4.29c-6.52,0-12.36,1.43-17.48,4.29
				c-5.12,2.86-9.21,6.87-12.22,12.05c-3.03,5.15-4.55,11.22-4.55,18.17c0,6.84,1.52,12.88,4.55,18.08c3,5.21,7.1,9.24,12.22,12.1
				C1311.29,722.78,1317.07,724.21,1323.48,724.21L1323.48,724.21z"/>
			<path class="st0" d="M1433.65,734.83c-7.81,0-14.65-1.4-20.46-4.21c-5.84-2.8-10.36-7.01-13.56-12.62
				c-3.2-5.61-4.81-12.62-4.81-21.03v-51.34h12.42v49.99c0,9.41,2.43,16.51,7.27,21.29c4.84,4.75,11.62,7.15,20.35,7.15
				c6.44,0,11.99-1.29,16.71-3.81c4.72-2.52,8.33-6.18,10.85-11.02c2.49-4.84,3.75-10.62,3.75-17.34v-46.27h12.42v88.34h-11.88
				v-24.21l1.92,4.38c-2.92,6.5-7.44,11.56-13.56,15.22C1448.93,733,1441.81,734.83,1433.65,734.83L1433.65,734.83z"/>
			<path class="st0" d="M1560.59,734.83c-7.93,0-15.11-1.77-21.52-5.29c-6.41-3.55-11.5-8.64-15.28-15.34
				c-3.81-6.67-5.69-14.82-5.69-24.47s1.86-17.83,5.61-24.49c3.72-6.67,8.79-11.76,15.2-15.22c6.41-3.49,13.65-5.21,21.69-5.21
				c8.73,0,16.57,1.86,23.52,5.64c6.93,3.75,12.39,9.01,16.34,15.8c3.98,6.81,5.95,14.62,5.95,23.49c0,8.96-1.97,16.83-5.95,23.55
				c-3.95,6.73-9.41,12.02-16.34,15.82C1577.16,732.91,1569.32,734.83,1560.59,734.83L1560.59,734.83z M1513.2,766.62V645.63h11.88
				v26.58l-1.2,17.68l1.75,17.83v58.89H1513.2L1513.2,766.62z M1559.71,724.21c6.52,0,12.36-1.43,17.48-4.29
				c5.15-2.86,9.21-6.9,12.25-12.1c3.03-5.21,4.55-11.25,4.55-18.08c0-6.84-1.52-12.85-4.55-18c-3.03-5.18-7.1-9.21-12.25-12.13
				c-5.12-2.92-10.96-4.38-17.48-4.38c-6.53,0-12.39,1.46-17.57,4.38c-5.18,2.92-9.27,6.95-12.25,12.13
				c-2.95,5.15-4.44,11.16-4.44,18c0,6.84,1.49,12.88,4.44,18.08c2.98,5.21,7.07,9.24,12.25,12.1
				C1547.32,722.78,1553.18,724.21,1559.71,724.21L1559.71,724.21z"/>
		</g>
		<g>
			<path class="st0" d="M705.75,379.1c12.99-21.16,34.07-39.05,59.88-42.99c13.4-2.27,27.07-1.8,40.54-0.24
				c29.06,5.61,53.23,27.24,60.94,54.94c0.19,2.04,0.56,6.19,0.76,8.23c-1.23,0.11-3.72,0.26-4.96,0.35
				c-4.33-20.31-16.93-39.48-36.08-49.51c-19.08-10.94-42.79-12.08-63.97-7.28c-26.75,6.24-47.69,27.16-57.32,51.5
				c-1.3,4.01-2.49,8.06-4.07,12c-5.93,30.97-4.14,65.75,15.68,92c27.96,40.28,96.28,44.01,129.14,7.47
				c9.05-8.68,14.38-20.05,17.95-31.73c0.76-8.86,1.08-17.78,1.04-26.66c-25.55-0.24-51.15,0.11-76.71-0.11
				c0.04-1.39,0.13-4.14,0.19-5.46c27.35-0.19,54.75,0.11,82.14-0.17c0.26,29.69-0.13,59.4,0.26,89.09
				c-1.52,0.06-4.59,0.15-6.11,0.17c0.26-14.97,0.19-29.95-0.19-44.89c-7.23,22.02-26.75,38.96-49.16,46.15
				c-27.63,7.6-59.97,5.76-83.85-10.83c-12.21-7.71-20.38-19.71-27.76-31.57C688.4,454.77,688.23,413.3,705.75,379.1"/>
			<path class="st0" d="M899.66,339.25l5.13,0.04c0,0,0.06,85.85,0.93,129.92c1.41,17.06,5.83,36.01,20.6,47.08
				c15.07,13.43,36.84,15.4,56.39,13.88c18.23-1.34,36.58-10.07,46.19-25.53c8.88-14.94,10.91-32.64,10.87-49.57
				c-0.07-38.5,0-77.01-0.07-115.49c1.45,0,4.33,0.04,5.78,0.09c-0.06,41.52,0.11,83.07-0.11,124.61
				c-0.13,22.37-7.88,46.99-27.89,60.14c-18.99,12.71-43.44,13.17-65.53,10.24c-16.2-3.12-31.75-11.65-40.5-25.51
				c-10.74-17.04-12.58-37.64-12.17-57.13C899.63,415.05,899.66,339.25,899.66,339.25"/>
			<path class="st0" d="M1075.85,339.36h4.61c0.41,62.18,0.11,124.33,0.11,186.5c36.14,0.19,72.29,0,108.43,0.09
				c3.21,0.43,8.64-1.02,8.75,3.68c-4.68,2.84-10.22,2.34-15.46,2.47c-35.39-0.11-70.82-0.13-106.22-0.04
				C1075.14,467.85,1075.61,403.6,1075.85,339.36"/>
			<path class="st0" d="M1209.15,339.3c46.15-0.06,92.62-0.04,138.75-0.04c15.96,56.2,29.45,112.33,46.15,168.33
				c7.49-32.2,18.71-63.41,26.92-95.44c6.04-23.82,20.36-72.85,20.36-72.85h25.92c0,0,17.32,61.01,25.19,91.02
				c6.35,25.9,15.83,50.98,21.74,77.01c16.78-55.38,46.39-168.03,46.39-168.03h18.88c0,0-31.55,109.3-46.8,164.48
				c-2.62,9.49-5.2,18.99-8.4,28.33c-6.28-0.06-12.56-0.06-18.82,0.04c-7.23-17.95-11.43-36.82-17.09-55.2
				c-11.61-39.35-22.83-78.81-34.69-118.07c-7.58,25.66-14.19,51.56-22.24,77.1c-10.05,31.96-17.06,64.88-29.26,96.18
				c-6.35-0.15-12.71-0.17-19.06-0.11c-11.3-38.66-22.26-77.42-33.46-116.12c-6.22-23.93-13.92-47.45-20.59-71.29
				c-38.01-0.11-76.01,0.04-114.02-0.04c-0.15,27.94-0.13,55.87,0.02,83.79c35.78,0.37,71.57-0.48,107.37,0.45
				c-1.17,3.57-3.57,5.22-7.19,4.92c-33.42,0.15-66.85-0.09-100.27,0.07c0,32.31-0.06,64.64,0.02,96.95h-5.83
				C1209.36,466.72,1208.47,403.34,1209.15,339.3"/>
			<path class="st0" d="M1668.56,357.81c-14.06,32.31-26.79,65.16-39.89,97.84c25.71,0.3,51.39,0.15,77.12,0.09
				C1694.16,422.83,1679.76,390.88,1668.56,357.81 M1658.03,339.3h21.7c0,0,52.3,127.95,77.4,192.76
				c-6.6-0.02-13.19-0.07-19.73-0.02c-8.6-19.95-16.68-40.09-24.34-60.36c-30.12-0.11-60.27,0.04-90.37-0.09
				c-7.77,19.4-16.59,38.44-22.78,58.38c-7.25,2.3-14.83,2.6-22.05-0.04c18.19-39.46,33.61-80.08,50.87-120
				C1637.89,386.7,1658.03,339.3,1658.03,339.3"/>
			<path class="st0" d="M1752.98,339.3c7.12-0.13,14.57,0.09,21.74,0c22.76,32.01,43.59,64.04,65.14,96.8
				c22.89-30.75,65.66-96.8,65.66-96.8h23.09c0,0-52.62,74.56-77.7,112.05c-2.66,26.59-0.2,53.84-1.21,80.69
				c-6.19-0.07-12.34-0.04-18.47,0.06c-1.1-26.55,0.76-53.25-1.08-79.7C1805.02,414.1,1777.86,377.8,1752.98,339.3"/>
			<path class="st1" d="M1966.09,339.25c12.52,0,22.7,10,22.7,22.33s-10.18,22.33-22.7,22.33c-12.52,0-22.7-10.01-22.7-22.33
				S1953.58,339.25,1966.09,339.25L1966.09,339.25z M1966.09,342.03c10.98,0,19.88,8.75,19.88,19.56c0,10.81-8.9,19.58-19.88,19.58
				c-10.98,0-19.88-8.77-19.88-19.58C1946.21,350.78,1955.11,342.03,1966.09,342.03L1966.09,342.03z"/>
			<path class="st0" d="M1958.45,371.05v-18.91h8.71c1.75,0,3.1,0.15,4.01,0.5c0.91,0.35,1.62,0.93,2.19,1.8
				c0.54,0.87,0.8,1.82,0.8,2.86c0,1.34-0.45,2.47-1.34,3.4c-0.91,0.91-2.3,1.49-4.18,1.75c0.67,0.3,1.21,0.63,1.56,0.93
				c0.76,0.67,1.47,1.52,2.17,2.51l3.42,5.15h-3.27l-2.62-3.94c-0.76-1.13-1.39-1.99-1.86-2.6c-0.5-0.61-0.93-1.02-1.32-1.28
				c-0.39-0.24-0.78-0.39-1.19-0.5c-0.3-0.06-0.78-0.09-1.45-0.09h-3.01v8.4H1958.45L1958.45,371.05z M1961.05,360.48h5.59
				c1.19,0,2.12-0.11,2.79-0.35c0.67-0.24,1.17-0.63,1.52-1.15c0.35-0.52,0.52-1.08,0.52-1.69c0-0.89-0.32-1.62-1-2.21
				c-0.67-0.58-1.75-0.87-3.21-0.87h-6.22V360.48L1961.05,360.48z"/>
		</g>
	</g>
</g>
</svg>
