<svg width="1920" height="600" viewBox="0 0 1920 600" fill="none" xmlns="http://www.w3.org/2000/svg">
<rect width="1920" height="600" fill="url(#paint0_linear_571_810)"/>
<mask id="mask0_571_810" style="mask-type:alpha" maskUnits="userSpaceOnUse" x="0" y="0" width="1920" height="600">
<rect width="1920" height="600" fill="url(#paint1_linear_571_810)"/>
</mask>
<g mask="url(#mask0_571_810)">
<mask id="path-3-outside-1_571_810" maskUnits="userSpaceOnUse" x="-88.8301" y="153.811" width="741.277" height="639.064" fill="black">
<rect fill="white" x="-88.8301" y="153.811" width="741.277" height="639.064"/>
<path d="M135.055 719.059C119.211 730.934 102.669 737.709 85.4289 739.384C68.1884 741.059 51.4893 737.954 35.3317 730.069C19.0541 722.024 4.49783 709.44 -8.33704 692.316C-21.2919 675.032 -29.3266 657.31 -32.4411 639.149C-35.5156 620.708 -33.5703 603.128 -26.6053 586.41C-19.6002 569.412 -7.45576 554.436 9.82812 541.481C29.5125 526.727 49.3748 519.213 69.4149 518.939C89.455 518.665 107.633 525.411 123.949 539.175L89.6211 564.905C81.1829 558.983 71.9837 556.38 62.0234 557.097C51.9433 557.654 41.622 561.891 31.0596 569.808C14.2559 582.403 5.31135 597.48 4.2261 615.04C3.02089 632.439 9.3755 650.421 23.2899 668.985C37.2044 687.549 52.4811 698.594 69.12 702.119C85.7991 705.364 101.9 701.169 117.424 689.533C132.627 678.138 141.011 665.481 142.575 651.561C144.179 637.361 140.744 622.94 132.268 608.298L89.7786 640.145L72.5055 617.1L145.962 562.042L215.234 654.463L186.908 675.694L167.954 655.409C168.51 667.489 166.327 678.748 161.404 689.187C156.481 699.625 147.698 709.583 135.055 719.059ZM279.194 606.523L108.834 471.772L141.721 447.122L272.188 558.161L207.496 397.822L241.344 372.452L376.131 480.252L306.158 323.871L339.286 299.041L419.625 501.265L383.137 528.614L256.387 429.036L315.442 579.354L279.194 606.523ZM555.853 403.657C540.009 415.533 523.467 422.308 506.226 423.983C488.986 425.657 472.287 422.552 456.129 414.668C439.852 406.623 425.295 394.038 412.461 376.914C399.506 359.631 391.471 341.908 388.356 323.747C385.282 305.306 387.227 287.727 394.192 271.009C401.197 254.011 413.342 239.035 430.626 226.08C450.31 211.326 470.172 203.812 490.212 203.538C510.253 203.264 528.431 210.009 544.746 223.774L510.419 249.504C501.98 243.581 492.781 240.978 482.821 241.695C472.741 242.252 462.42 246.489 451.857 254.406C435.053 267.001 426.109 282.079 425.024 299.638C423.818 317.038 430.173 335.02 444.088 353.584C458.002 372.148 473.279 383.193 489.918 386.718C506.597 389.963 522.698 385.767 538.221 374.132C553.425 362.737 561.809 350.079 563.373 336.16C564.977 321.96 561.541 307.539 553.066 292.897L510.576 324.744L493.303 301.699L566.76 246.641L636.032 339.061L607.706 360.293L588.752 340.007C589.308 352.087 587.125 363.347 582.201 373.785C577.278 384.224 568.495 394.181 555.853 403.657Z"/>
</mask>
<path d="M85.4289 739.384L86.3958 749.337L86.3958 749.337L85.4289 739.384ZM35.3317 730.069L30.9009 739.034L30.9235 739.045L30.946 739.056L35.3317 730.069ZM-32.4411 639.149L-42.305 640.793L-42.3012 640.816L-42.2972 640.839L-32.4411 639.149ZM-26.6053 586.41L-17.3744 590.256L-17.367 590.238L-17.3597 590.221L-26.6053 586.41ZM69.4149 518.939L69.2782 508.94L69.2782 508.94L69.4149 518.939ZM123.949 539.175L129.946 547.177L140.005 539.638L130.397 531.532L123.949 539.175ZM89.6211 564.905L83.8762 573.09L89.814 577.258L95.6187 572.907L89.6211 564.905ZM62.0234 557.097L62.5752 567.082L62.6584 567.077L62.7415 567.071L62.0234 557.097ZM4.2261 615.04L14.2022 615.731L14.2048 615.693L14.2071 615.656L4.2261 615.04ZM69.12 702.119L67.0475 711.902L67.1288 711.919L67.2103 711.935L69.12 702.119ZM142.575 651.561L132.638 650.438L132.638 650.444L142.575 651.561ZM132.268 608.298L140.923 603.288L135.281 593.542L126.271 600.296L132.268 608.298ZM89.7786 640.145L81.7768 646.143L87.7744 654.145L95.7762 648.147L89.7786 640.145ZM72.5055 617.1L66.5079 609.098L58.5061 615.096L64.5037 623.098L72.5055 617.1ZM145.962 562.042L153.964 556.044L147.966 548.043L139.964 554.04L145.962 562.042ZM215.234 654.463L221.232 662.465L229.234 656.467L223.236 648.465L215.234 654.463ZM186.908 675.694L179.601 682.521L185.726 689.077L192.906 683.696L186.908 675.694ZM167.954 655.409L175.261 648.581L156.715 628.732L157.965 655.869L167.954 655.409ZM161.404 689.187L170.448 693.452L170.448 693.452L161.404 689.187ZM129.057 711.057C114.466 721.994 99.6293 727.957 84.462 729.431L86.3958 749.337C105.709 747.461 123.957 739.874 141.053 727.061L129.057 711.057ZM84.462 729.431C69.1325 730.92 54.2804 728.189 39.7173 721.082L30.946 739.056C48.6982 747.719 67.2442 751.198 86.3958 749.337L84.462 729.431ZM39.7624 721.104C25.122 713.868 11.726 702.41 -0.335247 686.318L-16.3388 698.313C-2.73031 716.469 12.9861 730.18 30.9009 739.034L39.7624 721.104ZM-0.335247 686.318C-12.5028 670.085 -19.781 653.808 -22.585 637.458L-42.2972 640.839C-38.8721 660.811 -30.0809 679.979 -16.3388 698.313L-0.335247 686.318ZM-22.5773 637.504C-25.3533 620.853 -23.5927 605.182 -17.3744 590.256L-35.8363 582.565C-43.548 601.075 -45.6779 620.562 -42.305 640.793L-22.5773 637.504ZM-17.3597 590.221C-11.1522 575.158 -0.272446 561.549 15.8257 549.483L3.83052 533.479C-14.6391 547.323 -28.0483 563.667 -35.851 582.6L-17.3597 590.221ZM15.8257 549.483C34.2088 535.704 52.0693 529.177 69.5516 528.938L69.2782 508.94C46.6803 509.249 24.8162 517.75 3.83052 533.479L15.8257 549.483ZM69.5516 528.938C87.0199 528.699 102.895 534.496 117.501 546.819L130.397 531.532C112.371 516.325 91.89 508.631 69.2782 508.94L69.5516 528.938ZM117.951 531.174L83.6235 556.903L95.6187 572.907L129.946 547.177L117.951 531.174ZM95.366 556.72C85.1098 549.521 73.641 546.235 61.3054 547.123L62.7415 567.071C70.3263 566.525 77.256 568.444 83.8762 573.09L95.366 556.72ZM61.4717 547.112C48.8969 547.807 36.7248 553.064 25.062 561.806L37.0572 577.809C46.5192 570.717 54.9897 567.501 62.5752 567.082L61.4717 547.112ZM25.062 561.806C6.41226 575.784 -4.45342 593.365 -5.75486 614.423L14.2071 615.656C15.0761 601.595 22.0995 589.021 37.0572 577.809L25.062 561.806ZM-5.75 614.349C-7.16914 634.837 0.415288 655.14 15.2881 674.983L31.2917 662.988C18.3357 645.702 13.2109 630.042 14.2022 615.731L-5.75 614.349ZM15.2881 674.983C30.1239 694.776 47.296 707.717 67.0475 711.902L71.1925 692.336C57.6662 689.471 44.2848 680.323 31.2917 662.988L15.2881 674.983ZM67.2103 711.935C87.0695 715.799 105.991 710.6 123.421 697.535L111.426 681.532C97.8098 691.738 84.5287 694.929 71.0298 692.303L67.2103 711.935ZM123.421 697.535C140.016 685.097 150.543 670.207 152.513 652.678L132.638 650.444C131.479 660.754 125.239 671.179 111.426 681.532L123.421 697.535ZM152.512 652.684C154.399 635.984 150.268 619.433 140.923 603.288L123.613 613.308C131.219 626.448 133.96 638.739 132.638 650.438L152.512 652.684ZM126.271 600.296L83.781 632.143L95.7762 648.147L138.266 616.3L126.271 600.296ZM97.7804 634.148L80.5073 611.102L64.5037 623.098L81.7768 646.143L97.7804 634.148ZM78.5031 625.102L151.96 570.044L139.964 554.04L66.5079 609.098L78.5031 625.102ZM137.96 568.04L207.233 660.46L223.236 648.465L153.964 556.044L137.96 568.04ZM209.237 646.461L180.91 667.692L192.906 683.696L221.232 662.465L209.237 646.461ZM194.215 668.867L175.261 648.581L160.647 662.236L179.601 682.521L194.215 668.867ZM157.965 655.869C158.45 666.401 156.553 676.028 152.359 684.921L170.448 693.452C176.101 681.468 178.571 668.577 177.943 654.948L157.965 655.869ZM152.359 684.921C148.341 693.441 140.853 702.216 129.057 711.057L141.053 727.061C154.542 716.949 164.621 705.809 170.448 693.452L152.359 684.921ZM279.194 606.523L272.99 614.366L279.029 619.143L285.191 614.525L279.194 606.523ZM108.834 471.772L102.836 463.77L92.4451 471.559L102.63 479.615L108.834 471.772ZM141.721 447.122L148.203 439.507L142.118 434.328L135.724 439.12L141.721 447.122ZM272.188 558.161L265.707 565.776L281.462 554.419L272.188 558.161ZM207.496 397.822L201.499 389.82L195.345 394.432L198.223 401.563L207.496 397.822ZM241.344 372.452L247.59 364.642L241.542 359.806L235.346 364.45L241.344 372.452ZM376.131 480.252L369.886 488.062L385.259 476.168L376.131 480.252ZM306.158 323.871L300.161 315.869L293.767 320.662L297.03 327.955L306.158 323.871ZM339.286 299.041L348.579 295.349L343.751 283.197L333.288 291.039L339.286 299.041ZM419.625 501.265L425.623 509.267L431.742 504.68L428.919 497.573L419.625 501.265ZM383.137 528.614L376.959 536.478L382.994 541.219L389.135 536.616L383.137 528.614ZM256.387 429.036L262.565 421.173L233.62 398.433L247.079 432.693L256.387 429.036ZM315.442 579.354L321.439 587.356L327.535 582.787L324.749 575.697L315.442 579.354ZM285.397 598.68L115.038 463.929L102.63 479.615L272.99 614.366L285.397 598.68ZM114.832 479.774L147.719 455.124L135.724 439.12L102.836 463.77L114.832 479.774ZM135.24 454.737L265.707 565.776L278.669 550.546L148.203 439.507L135.24 454.737ZM281.462 554.419L216.77 394.08L198.223 401.563L262.915 561.903L281.462 554.419ZM213.494 405.823L247.341 380.454L235.346 364.45L201.499 389.82L213.494 405.823ZM235.098 380.261L369.886 488.062L382.377 472.443L247.59 364.642L235.098 380.261ZM385.259 476.168L315.286 319.787L297.03 327.955L367.004 484.336L385.259 476.168ZM312.156 331.873L345.283 307.043L333.288 291.039L300.161 315.869L312.156 331.873ZM329.992 302.733L410.332 504.957L428.919 497.573L348.579 295.349L329.992 302.733ZM413.628 493.263L377.139 520.612L389.135 536.616L425.623 509.267L413.628 493.263ZM389.315 520.751L262.565 421.173L250.209 436.9L376.959 536.478L389.315 520.751ZM247.079 432.693L306.134 583.011L324.749 575.697L265.694 425.38L247.079 432.693ZM309.444 571.352L273.196 598.521L285.191 614.525L321.439 587.356L309.444 571.352ZM506.226 423.983L507.193 433.936L507.193 433.936L506.226 423.983ZM456.129 414.668L451.699 423.632L451.721 423.644L451.744 423.655L456.129 414.668ZM388.356 323.747L378.493 325.392L378.496 325.415L378.5 325.438L388.356 323.747ZM394.192 271.009L403.423 274.855L403.431 274.837L403.438 274.819L394.192 271.009ZM490.212 203.538L490.076 193.539L490.076 193.539L490.212 203.538ZM544.746 223.774L550.744 231.776L560.803 224.237L551.195 216.131L544.746 223.774ZM510.419 249.504L504.674 257.689L510.612 261.856L516.416 257.506L510.419 249.504ZM482.821 241.695L483.373 251.68L483.456 251.676L483.539 251.67L482.821 241.695ZM425.024 299.638L435 300.329L435.002 300.292L435.005 300.255L425.024 299.638ZM489.918 386.718L487.845 396.501L487.926 396.518L488.008 396.534L489.918 386.718ZM563.373 336.16L553.436 335.037L553.435 335.043L563.373 336.16ZM553.066 292.897L561.72 287.887L556.079 278.141L547.068 284.895L553.066 292.897ZM510.576 324.744L502.574 330.741L508.572 338.743L516.574 332.746L510.576 324.744ZM493.303 301.699L487.305 293.697L479.304 299.694L485.301 307.696L493.303 301.699ZM566.76 246.641L574.761 240.643L568.764 232.641L560.762 238.639L566.76 246.641ZM636.032 339.061L642.029 347.063L650.031 341.066L644.034 333.064L636.032 339.061ZM607.706 360.293L600.399 367.12L606.524 373.676L613.703 368.295L607.706 360.293ZM588.752 340.007L596.058 333.18L577.512 313.331L578.762 340.467L588.752 340.007ZM582.201 373.785L591.246 378.051L591.246 378.051L582.201 373.785ZM549.855 395.656C535.264 406.592 520.427 412.556 505.26 414.029L507.193 433.936C526.507 432.059 544.754 424.473 561.85 411.659L549.855 395.656ZM505.26 414.029C489.93 415.519 475.078 412.787 460.515 405.681L451.744 423.655C469.496 432.317 488.042 435.796 507.193 433.936L505.26 414.029ZM460.56 405.703C445.92 398.467 432.524 387.008 420.462 370.917L404.459 382.912C418.067 401.068 433.784 414.778 451.699 423.632L460.56 405.703ZM420.462 370.917C408.295 354.683 401.017 338.407 398.213 322.057L378.5 325.438C381.925 345.409 390.717 364.578 404.459 382.912L420.462 370.917ZM398.22 322.103C395.444 305.452 397.205 289.78 403.423 274.855L384.961 267.163C377.25 285.673 375.12 305.161 378.493 325.392L398.22 322.103ZM403.438 274.819C409.645 259.757 420.525 246.148 436.623 234.082L424.628 218.078C406.159 231.922 392.749 248.266 384.947 267.199L403.438 274.819ZM436.623 234.082C455.006 220.303 472.867 213.776 490.349 213.537L490.076 193.539C467.478 193.848 445.614 202.349 424.628 218.078L436.623 234.082ZM490.349 213.537C507.817 213.298 523.692 219.095 538.298 231.417L551.195 216.131C533.169 200.923 512.688 193.229 490.076 193.539L490.349 213.537ZM538.749 215.772L504.421 241.502L516.416 257.506L550.744 231.776L538.749 215.772ZM516.164 241.319C505.907 234.12 494.439 230.833 482.103 231.721L483.539 251.67C491.124 251.124 498.054 253.042 504.674 257.689L516.164 241.319ZM482.269 231.711C469.694 232.406 457.522 237.663 445.86 246.404L457.855 262.408C467.317 255.316 475.787 252.099 483.373 251.68L482.269 231.711ZM445.86 246.404C427.21 260.383 416.344 277.964 415.043 299.021L435.005 300.255C435.874 286.193 442.897 273.619 457.855 262.408L445.86 246.404ZM415.048 298.947C413.628 319.435 421.213 339.739 436.086 359.582L452.089 347.586C439.133 330.301 434.008 314.64 435 300.329L415.048 298.947ZM436.086 359.582C450.922 379.375 468.094 392.316 487.845 396.501L491.99 376.935C478.464 374.069 465.082 364.921 452.089 347.586L436.086 359.582ZM488.008 396.534C507.867 400.397 526.788 395.199 544.219 382.134L532.224 366.13C518.607 376.336 505.326 379.528 491.827 376.902L488.008 396.534ZM544.219 382.134C560.813 369.696 571.34 354.806 573.31 337.276L553.435 335.043C552.277 345.352 546.036 355.778 532.224 366.13L544.219 382.134ZM573.31 337.282C575.196 320.583 571.066 304.032 561.72 287.887L544.411 297.906C552.017 311.046 554.758 323.337 553.436 335.037L573.31 337.282ZM547.068 284.895L504.579 316.742L516.574 332.746L559.063 300.898L547.068 284.895ZM518.578 318.746L501.305 295.701L485.301 307.696L502.574 330.741L518.578 318.746ZM499.301 309.7L572.757 254.642L560.762 238.639L487.305 293.697L499.301 309.7ZM558.758 252.638L628.03 345.059L644.034 333.064L574.761 240.643L558.758 252.638ZM630.034 331.06L601.708 352.291L613.703 368.295L642.029 347.063L630.034 331.06ZM615.012 353.466L596.058 333.18L581.445 346.834L600.399 367.12L615.012 353.466ZM578.762 340.467C579.247 350.999 577.351 360.627 573.157 369.52L591.246 378.051C596.898 366.067 599.369 353.176 598.741 339.547L578.762 340.467ZM573.157 369.52C569.138 378.04 561.651 386.814 549.855 395.656L561.85 411.659C575.34 401.548 585.418 390.408 591.246 378.051L573.157 369.52Z" fill="white" fill-opacity="0.04" mask="url(#path-3-outside-1_571_810)"/>
<mask id="path-5-outside-2_571_810" maskUnits="userSpaceOnUse" x="760.17" y="-89.1887" width="741.277" height="639.064" fill="black">
<rect fill="white" x="760.17" y="-89.1887" width="741.277" height="639.064"/>
<path d="M984.055 476.059C968.211 487.934 951.669 494.709 934.429 496.384C917.188 498.059 900.489 494.954 884.332 487.069C868.054 479.024 853.498 466.44 840.663 449.316C827.708 432.032 819.673 414.31 816.559 396.149C813.484 377.708 815.43 360.129 822.395 343.411C829.4 326.413 841.544 311.436 858.828 298.482C878.513 283.727 898.375 276.213 918.415 275.939C938.455 275.665 956.633 282.411 972.949 296.176L938.621 321.905C930.183 315.983 920.984 313.38 911.023 314.097C900.943 314.654 890.622 318.891 880.06 326.808C863.256 339.403 854.311 354.48 853.226 372.04C852.021 389.44 858.376 407.421 872.29 425.986C886.204 444.55 901.481 455.594 918.12 459.119C934.799 462.364 950.9 458.169 966.424 446.534C981.627 435.138 990.011 422.481 991.575 408.561C993.179 394.362 989.744 379.941 981.268 365.298L938.779 397.146L921.505 374.1L994.962 319.042L1064.23 411.463L1035.91 432.695L1016.95 412.409C1017.51 424.489 1015.33 435.748 1010.4 446.187C1005.48 456.626 996.698 466.583 984.055 476.059ZM1128.19 363.524L957.834 228.772L990.721 204.122L1121.19 315.161L1056.5 154.822L1090.34 129.452L1225.13 237.253L1155.16 80.8716L1188.29 56.0415L1268.63 258.266L1232.14 285.615L1105.39 186.037L1164.44 336.354L1128.19 363.524ZM1404.85 160.658C1389.01 172.533 1372.47 179.308 1355.23 180.983C1337.99 182.658 1321.29 179.553 1305.13 171.668C1288.85 163.623 1274.3 151.039 1261.46 133.915C1248.51 116.631 1240.47 98.9085 1237.36 80.7476C1234.28 62.3067 1236.23 44.7272 1243.19 28.0093C1250.2 11.0114 1262.34 -3.96493 1279.63 -16.9198C1299.31 -31.6739 1319.17 -39.1879 1339.21 -39.4619C1359.25 -39.7359 1377.43 -32.9905 1393.75 -19.2256L1359.42 6.50413C1350.98 0.581602 1341.78 -2.02115 1331.82 -1.30414C1321.74 -0.747156 1311.42 3.48975 1300.86 11.4066C1284.05 24.0016 1275.11 39.0789 1274.02 56.6386C1272.82 74.0382 1279.17 92.0201 1293.09 110.584C1307 129.148 1322.28 140.193 1338.92 143.718C1355.6 146.963 1371.7 142.768 1387.22 131.132C1402.42 119.737 1410.81 107.08 1412.37 93.16C1413.98 78.9605 1410.54 64.5394 1402.07 49.8969L1359.58 81.7442L1342.3 58.699L1415.76 3.641L1485.03 96.0618L1456.71 117.293L1437.75 97.0076C1438.31 109.088 1436.12 120.347 1431.2 130.786C1426.28 141.224 1417.5 151.182 1404.85 160.658Z"/>
</mask>
<path d="M934.429 496.384L935.396 506.337L935.396 506.337L934.429 496.384ZM884.332 487.069L879.901 496.034L879.923 496.045L879.946 496.056L884.332 487.069ZM816.559 396.149L806.695 397.793L806.699 397.816L806.703 397.839L816.559 396.149ZM822.395 343.411L831.626 347.256L831.633 347.239L831.64 347.221L822.395 343.411ZM918.415 275.939L918.278 265.94L918.278 265.94L918.415 275.939ZM972.949 296.176L978.946 304.178L989.005 296.638L979.397 288.532L972.949 296.176ZM938.621 321.905L932.876 330.091L938.814 334.258L944.619 329.907L938.621 321.905ZM911.023 314.097L911.575 324.082L911.658 324.077L911.741 324.071L911.023 314.097ZM853.226 372.04L863.202 372.731L863.205 372.694L863.207 372.657L853.226 372.04ZM918.12 459.119L916.048 468.902L916.129 468.919L916.21 468.935L918.12 459.119ZM991.575 408.561L981.638 407.439L981.638 407.445L991.575 408.561ZM981.268 365.298L989.923 360.289L984.281 350.543L975.271 357.296L981.268 365.298ZM938.779 397.146L930.777 403.143L936.774 411.145L944.776 405.147L938.779 397.146ZM921.505 374.1L915.508 366.099L907.506 372.096L913.504 380.098L921.505 374.1ZM994.962 319.042L1002.96 313.045L996.966 305.043L988.964 311.041L994.962 319.042ZM1064.23 411.463L1070.23 419.465L1078.23 413.467L1072.24 405.465L1064.23 411.463ZM1035.91 432.695L1028.6 439.522L1034.73 446.077L1041.91 440.696L1035.91 432.695ZM1016.95 412.409L1024.26 405.582L1005.71 385.733L1006.96 412.869L1016.95 412.409ZM1010.4 446.187L1019.45 450.453L1019.45 450.453L1010.4 446.187ZM978.057 468.057C963.466 478.994 948.629 484.958 933.462 486.431L935.396 506.337C954.709 504.461 972.957 496.875 990.053 484.061L978.057 468.057ZM933.462 486.431C918.133 487.92 903.28 485.189 888.717 478.082L879.946 496.056C897.698 504.719 916.244 508.198 935.396 506.337L933.462 486.431ZM888.762 478.104C874.122 470.869 860.726 459.41 848.665 443.319L832.661 455.314C846.27 473.47 861.986 487.18 879.901 496.034L888.762 478.104ZM848.665 443.319C836.497 427.085 829.219 410.809 826.415 394.459L806.703 397.839C810.128 417.811 818.919 436.98 832.661 455.314L848.665 443.319ZM826.423 394.504C823.647 377.854 825.407 362.182 831.626 347.256L813.164 339.565C805.452 358.075 803.322 377.562 806.695 397.793L826.423 394.504ZM831.64 347.221C837.848 332.158 848.728 318.549 864.826 306.483L852.831 290.48C834.361 304.323 820.952 320.667 813.149 339.6L831.64 347.221ZM864.826 306.483C883.209 292.705 901.069 286.178 918.552 285.938L918.278 265.94C895.68 266.249 873.816 274.75 852.831 290.48L864.826 306.483ZM918.552 285.938C936.02 285.7 951.895 291.497 966.501 303.819L979.397 288.532C961.371 273.325 940.89 265.631 918.278 265.94L918.552 285.938ZM966.951 288.174L932.624 313.904L944.619 329.907L978.946 304.178L966.951 288.174ZM944.366 313.72C934.11 306.522 922.641 303.235 910.305 304.123L911.741 324.071C919.326 323.525 926.256 325.444 932.876 330.091L944.366 313.72ZM910.472 304.112C897.897 304.807 885.725 310.065 874.062 318.806L886.057 334.81C895.519 327.718 903.99 324.501 911.575 324.082L910.472 304.112ZM874.062 318.806C855.412 332.785 844.547 350.366 843.245 371.423L863.207 372.657C864.076 358.595 871.099 346.021 886.057 334.81L874.062 318.806ZM843.25 371.349C841.831 391.837 849.415 412.14 864.288 431.983L880.292 419.988C867.336 402.703 862.211 387.042 863.202 372.731L843.25 371.349ZM864.288 431.983C879.124 451.777 896.296 464.718 916.048 468.902L920.193 449.336C906.666 446.471 893.285 437.323 880.292 419.988L864.288 431.983ZM916.21 468.935C936.069 472.799 954.991 467.6 972.421 454.536L960.426 438.532C946.81 448.738 933.529 451.93 920.03 449.303L916.21 468.935ZM972.421 454.536C989.016 442.098 999.543 427.208 1001.51 409.678L981.638 407.445C980.479 417.754 974.239 428.179 960.426 438.532L972.421 454.536ZM1001.51 409.684C1003.4 392.985 999.268 376.433 989.923 360.289L972.613 370.308C980.219 383.448 982.96 395.739 981.638 407.439L1001.51 409.684ZM975.271 357.296L932.781 389.144L944.776 405.147L987.266 373.3L975.271 357.296ZM946.78 391.148L929.507 368.103L913.504 380.098L930.777 403.143L946.78 391.148ZM927.503 382.102L1000.96 327.044L988.964 311.041L915.508 366.099L927.503 382.102ZM986.96 325.04L1056.23 417.461L1072.24 405.465L1002.96 313.045L986.96 325.04ZM1058.24 403.461L1029.91 424.693L1041.91 440.696L1070.23 419.465L1058.24 403.461ZM1043.21 425.867L1024.26 405.582L1009.65 419.236L1028.6 439.522L1043.21 425.867ZM1006.96 412.869C1007.45 423.401 1005.55 433.029 1001.36 441.921L1019.45 450.453C1025.1 438.468 1027.57 425.577 1026.94 411.949L1006.96 412.869ZM1001.36 441.921C997.341 450.442 989.853 459.216 978.057 468.057L990.053 484.061C1003.54 473.95 1013.62 462.809 1019.45 450.453L1001.36 441.921ZM1128.19 363.524L1121.99 371.367L1128.03 376.144L1134.19 371.525L1128.19 363.524ZM957.834 228.772L951.836 220.771L941.445 228.559L951.63 236.616L957.834 228.772ZM990.721 204.122L997.203 196.507L991.118 191.328L984.724 196.121L990.721 204.122ZM1121.19 315.161L1114.71 322.777L1130.46 311.42L1121.19 315.161ZM1056.5 154.822L1050.5 146.82L1044.35 151.432L1047.22 158.564L1056.5 154.822ZM1090.34 129.452L1096.59 121.643L1090.54 116.806L1084.35 121.45L1090.34 129.452ZM1225.13 237.253L1218.89 245.062L1234.26 233.168L1225.13 237.253ZM1155.16 80.8716L1149.16 72.8698L1142.77 77.6622L1146.03 84.9559L1155.16 80.8716ZM1188.29 56.0415L1197.58 52.3494L1192.75 40.1971L1182.29 48.0397L1188.29 56.0415ZM1268.63 258.266L1274.62 266.267L1280.74 261.681L1277.92 254.573L1268.63 258.266ZM1232.14 285.615L1225.96 293.478L1231.99 298.219L1238.13 293.616L1232.14 285.615ZM1105.39 186.037L1111.56 178.173L1082.62 155.433L1096.08 189.693L1105.39 186.037ZM1164.44 336.354L1170.44 344.356L1176.53 339.788L1173.75 332.698L1164.44 336.354ZM1134.4 355.68L964.038 220.929L951.63 236.616L1121.99 371.367L1134.4 355.68ZM963.832 236.774L996.719 212.124L984.724 196.121L951.836 220.771L963.832 236.774ZM984.24 211.738L1114.71 322.777L1127.67 307.546L997.203 196.507L984.24 211.738ZM1130.46 311.42L1065.77 151.08L1047.22 158.564L1111.91 318.903L1130.46 311.42ZM1062.49 162.824L1096.34 137.454L1084.35 121.45L1050.5 146.82L1062.49 162.824ZM1084.1 137.262L1218.89 245.062L1231.38 229.443L1096.59 121.643L1084.1 137.262ZM1234.26 233.168L1164.29 76.7872L1146.03 84.9559L1216 241.337L1234.26 233.168ZM1161.16 88.8733L1194.28 64.0433L1182.29 48.0397L1149.16 72.8698L1161.16 88.8733ZM1178.99 59.7336L1259.33 261.958L1277.92 254.573L1197.58 52.3494L1178.99 59.7336ZM1262.63 250.264L1226.14 277.613L1238.13 293.616L1274.62 266.267L1262.63 250.264ZM1238.31 277.751L1111.56 178.173L1099.21 193.9L1225.96 293.478L1238.31 277.751ZM1096.08 189.693L1155.13 340.011L1173.75 332.698L1114.69 182.38L1096.08 189.693ZM1158.44 328.353L1122.2 355.522L1134.19 371.525L1170.44 344.356L1158.44 328.353ZM1355.23 180.983L1356.19 190.936L1356.19 190.936L1355.23 180.983ZM1305.13 171.668L1300.7 180.633L1300.72 180.644L1300.74 180.655L1305.13 171.668ZM1237.36 80.7476L1227.49 82.3921L1227.5 82.415L1227.5 82.4379L1237.36 80.7476ZM1243.19 28.0093L1252.42 31.8551L1252.43 31.8374L1252.44 31.8196L1243.19 28.0093ZM1339.21 -39.4619L1339.08 -49.461L1339.08 -49.461L1339.21 -39.4619ZM1393.75 -19.2256L1399.74 -11.2238L1409.8 -18.7631L1400.19 -26.8689L1393.75 -19.2256ZM1359.42 6.50413L1353.67 14.6893L1359.61 18.8568L1365.42 14.5059L1359.42 6.50413ZM1331.82 -1.30414L1332.37 8.68063L1332.46 8.67603L1332.54 8.67005L1331.82 -1.30414ZM1274.02 56.6386L1284 57.3296L1284 57.2925L1284 57.2554L1274.02 56.6386ZM1338.92 143.718L1336.85 153.501L1336.93 153.518L1337.01 153.534L1338.92 143.718ZM1412.37 93.16L1402.44 92.0373L1402.44 92.0433L1412.37 93.16ZM1402.07 49.8969L1410.72 44.8873L1405.08 35.1412L1396.07 41.8951L1402.07 49.8969ZM1359.58 81.7442L1351.57 87.7418L1357.57 95.7436L1365.57 89.746L1359.58 81.7442ZM1342.3 58.699L1336.31 50.6972L1328.3 56.6948L1334.3 64.6966L1342.3 58.699ZM1415.76 3.641L1423.76 -2.3566L1417.76 -10.3584L1409.76 -4.36079L1415.76 3.641ZM1485.03 96.0618L1491.03 104.064L1499.03 98.0659L1493.03 90.0641L1485.03 96.0618ZM1456.71 117.293L1449.4 124.12L1455.52 130.676L1462.7 125.295L1456.71 117.293ZM1437.75 97.0076L1445.06 90.1804L1426.51 70.3313L1427.76 97.4677L1437.75 97.0076ZM1431.2 130.786L1440.25 135.051L1440.25 135.051L1431.2 130.786ZM1398.85 152.656C1384.26 163.593 1369.43 169.556 1354.26 171.03L1356.19 190.936C1375.51 189.06 1393.75 181.473 1410.85 168.66L1398.85 152.656ZM1354.26 171.03C1338.93 172.519 1324.08 169.788 1309.51 162.681L1300.74 180.655C1318.5 189.318 1337.04 192.797 1356.19 190.936L1354.26 171.03ZM1309.56 162.703C1294.92 155.467 1281.52 144.009 1269.46 127.917L1253.46 139.912C1267.07 158.068 1282.78 171.779 1300.7 180.633L1309.56 162.703ZM1269.46 127.917C1257.29 111.684 1250.02 95.4075 1247.21 79.0573L1227.5 82.4379C1230.93 102.41 1239.72 121.578 1253.46 139.912L1269.46 127.917ZM1247.22 79.1031C1244.44 62.4524 1246.2 46.7807 1252.42 31.8551L1233.96 24.1636C1226.25 42.6738 1224.12 62.161 1227.49 82.3921L1247.22 79.1031ZM1252.44 31.8196C1258.65 16.757 1269.53 3.14814 1285.62 -8.91796L1273.63 -24.9216C1255.16 -11.078 1241.75 5.2659 1233.95 24.1991L1252.44 31.8196ZM1285.62 -8.91796C1304.01 -22.6967 1321.87 -29.2238 1339.35 -29.4629L1339.08 -49.461C1316.48 -49.152 1294.61 -40.651 1273.63 -24.9216L1285.62 -8.91796ZM1339.35 -29.4629C1356.82 -29.7017 1372.69 -23.9046 1387.3 -11.5823L1400.19 -26.8689C1382.17 -42.0763 1361.69 -49.7702 1339.08 -49.461L1339.35 -29.4629ZM1387.75 -27.2274L1353.42 -1.49767L1365.42 14.5059L1399.74 -11.2238L1387.75 -27.2274ZM1365.16 -1.681C1354.91 -8.87952 1343.44 -12.1663 1331.1 -11.2783L1332.54 8.67005C1340.12 8.12403 1347.05 10.0427 1353.67 14.6893L1365.16 -1.681ZM1331.27 -11.2889C1318.69 -10.5941 1306.52 -5.33683 1294.86 3.4048L1306.85 19.4084C1316.32 12.3163 1324.79 9.09977 1332.37 8.68063L1331.27 -11.2889ZM1294.86 3.4048C1276.21 17.3834 1265.34 34.9642 1264.04 56.0217L1284 57.2554C1284.87 43.1936 1291.9 30.6197 1306.85 19.4084L1294.86 3.4048ZM1264.05 55.9476C1262.63 76.4356 1270.21 96.739 1285.09 116.582L1301.09 104.587C1288.13 87.3012 1283.01 71.6408 1284 57.3296L1264.05 55.9476ZM1285.09 116.582C1299.92 136.375 1317.09 149.316 1336.85 153.501L1340.99 133.935C1327.46 131.07 1314.08 121.922 1301.09 104.587L1285.09 116.582ZM1337.01 153.534C1356.87 157.398 1375.79 152.199 1393.22 139.134L1381.22 123.131C1367.61 133.337 1354.33 136.528 1340.83 133.902L1337.01 153.534ZM1393.22 139.134C1409.81 126.696 1420.34 111.807 1422.31 94.2767L1402.44 92.0433C1401.28 102.353 1395.04 112.778 1381.22 123.131L1393.22 139.134ZM1422.31 94.2826C1424.2 77.5833 1420.07 61.0321 1410.72 44.8873L1393.41 54.9065C1401.02 68.0468 1403.76 80.3376 1402.44 92.0373L1422.31 94.2826ZM1396.07 41.8951L1353.58 73.7424L1365.57 89.746L1408.06 57.8987L1396.07 41.8951ZM1367.58 75.7466L1350.3 52.7014L1334.3 64.6966L1351.57 87.7418L1367.58 75.7466ZM1348.3 66.7008L1421.76 11.6428L1409.76 -4.36079L1336.31 50.6972L1348.3 66.7008ZM1407.76 9.63861L1477.03 102.059L1493.03 90.0641L1423.76 -2.3566L1407.76 9.63861ZM1479.03 88.06L1450.71 109.291L1462.7 125.295L1491.03 104.064L1479.03 88.06ZM1464.01 110.466L1445.06 90.1804L1430.44 103.835L1449.4 124.12L1464.01 110.466ZM1427.76 97.4677C1428.25 108 1426.35 117.627 1422.16 126.52L1440.25 135.051C1445.9 123.067 1448.37 110.176 1447.74 96.5475L1427.76 97.4677ZM1422.16 126.52C1418.14 135.04 1410.65 143.815 1398.85 152.656L1410.85 168.66C1424.34 158.548 1434.42 147.408 1440.25 135.051L1422.16 126.52Z" fill="white" fill-opacity="0.04" mask="url(#path-5-outside-2_571_810)"/>
<mask id="path-7-outside-3_571_810" maskUnits="userSpaceOnUse" x="1151.17" y="191.811" width="741.277" height="639.064" fill="black">
<rect fill="white" x="1151.17" y="191.811" width="741.277" height="639.064"/>
<path d="M1375.05 757.059C1359.21 768.934 1342.67 775.709 1325.43 777.384C1308.19 779.059 1291.49 775.954 1275.33 768.069C1259.05 760.024 1244.5 747.44 1231.66 730.316C1218.71 713.032 1210.67 695.31 1207.56 677.149C1204.48 658.708 1206.43 641.129 1213.39 624.411C1220.4 607.413 1232.54 592.436 1249.83 579.482C1269.51 564.727 1289.37 557.213 1309.41 556.939C1329.45 556.665 1347.63 563.411 1363.95 577.176L1329.62 602.905C1321.18 596.983 1311.98 594.38 1302.02 595.097C1291.94 595.654 1281.62 599.891 1271.06 607.808C1254.26 620.403 1245.31 635.48 1244.23 653.04C1243.02 670.44 1249.38 688.421 1263.29 706.986C1277.2 725.55 1292.48 736.594 1309.12 740.119C1325.8 743.364 1341.9 739.169 1357.42 727.534C1372.63 716.138 1381.01 703.481 1382.58 689.561C1384.18 675.362 1380.74 660.941 1372.27 646.298L1329.78 678.146L1312.51 655.1L1385.96 600.042L1455.23 692.463L1426.91 713.695L1407.95 693.409C1408.51 705.489 1406.33 716.748 1401.4 727.187C1396.48 737.626 1387.7 747.583 1375.05 757.059ZM1519.19 644.524L1348.83 509.772L1381.72 485.122L1512.19 596.161L1447.5 435.822L1481.34 410.452L1616.13 518.253L1546.16 361.872L1579.29 337.041L1659.63 539.266L1623.14 566.615L1496.39 467.037L1555.44 617.354L1519.19 644.524ZM1795.85 441.658C1780.01 453.533 1763.47 460.308 1746.23 461.983C1728.99 463.658 1712.29 460.553 1696.13 452.668C1679.85 444.623 1665.3 432.039 1652.46 414.915C1639.51 397.631 1631.47 379.909 1628.36 361.748C1625.28 343.307 1627.23 325.727 1634.19 309.009C1641.2 292.011 1653.34 277.035 1670.63 264.08C1690.31 249.326 1710.17 241.812 1730.21 241.538C1750.25 241.264 1768.43 248.01 1784.75 261.774L1750.42 287.504C1741.98 281.582 1732.78 278.979 1722.82 279.696C1712.74 280.253 1702.42 284.49 1691.86 292.407C1675.05 305.002 1666.11 320.079 1665.02 337.639C1663.82 355.038 1670.17 373.02 1684.09 391.584C1698 410.148 1713.28 421.193 1729.92 424.718C1746.6 427.963 1762.7 423.768 1778.22 412.132C1793.42 400.737 1801.81 388.08 1803.37 374.16C1804.98 359.96 1801.54 345.539 1793.07 330.897L1750.58 362.744L1733.3 339.699L1806.76 284.641L1876.03 377.062L1847.71 398.293L1828.75 378.008C1829.31 390.088 1827.12 401.347 1822.2 411.786C1817.28 422.224 1808.5 432.182 1795.85 441.658Z"/>
</mask>
<path d="M1325.43 777.384L1326.4 787.337L1326.4 787.337L1325.43 777.384ZM1275.33 768.069L1270.9 777.034L1270.92 777.045L1270.95 777.056L1275.33 768.069ZM1207.56 677.149L1197.7 678.793L1197.7 678.816L1197.7 678.839L1207.56 677.149ZM1213.39 624.411L1222.63 628.256L1222.63 628.239L1222.64 628.221L1213.39 624.411ZM1309.41 556.939L1309.28 546.94L1309.28 546.94L1309.41 556.939ZM1363.95 577.176L1369.95 585.178L1380.01 577.638L1370.4 569.532L1363.95 577.176ZM1329.62 602.905L1323.88 611.091L1329.81 615.258L1335.62 610.907L1329.62 602.905ZM1302.02 595.097L1302.58 605.082L1302.66 605.077L1302.74 605.071L1302.02 595.097ZM1244.23 653.04L1254.2 653.731L1254.2 653.694L1254.21 653.657L1244.23 653.04ZM1309.12 740.119L1307.05 749.902L1307.13 749.919L1307.21 749.935L1309.12 740.119ZM1382.58 689.561L1372.64 688.439L1372.64 688.445L1382.58 689.561ZM1372.27 646.298L1380.92 641.289L1375.28 631.543L1366.27 638.296L1372.27 646.298ZM1329.78 678.146L1321.78 684.143L1327.77 692.145L1335.78 686.147L1329.78 678.146ZM1312.51 655.1L1306.51 647.099L1298.51 653.096L1304.5 661.098L1312.51 655.1ZM1385.96 600.042L1393.96 594.045L1387.97 586.043L1379.96 592.041L1385.96 600.042ZM1455.23 692.463L1461.23 700.465L1469.23 694.467L1463.24 686.465L1455.23 692.463ZM1426.91 713.695L1419.6 720.522L1425.73 727.077L1432.91 721.696L1426.91 713.695ZM1407.95 693.409L1415.26 686.582L1396.71 666.733L1397.96 693.869L1407.95 693.409ZM1401.4 727.187L1410.45 731.453L1410.45 731.453L1401.4 727.187ZM1369.06 749.057C1354.47 759.994 1339.63 765.958 1324.46 767.431L1326.4 787.337C1345.71 785.461 1363.96 777.875 1381.05 765.061L1369.06 749.057ZM1324.46 767.431C1309.13 768.92 1294.28 766.189 1279.72 759.082L1270.95 777.056C1288.7 785.719 1307.24 789.198 1326.4 787.337L1324.46 767.431ZM1279.76 759.104C1265.12 751.869 1251.73 740.41 1239.66 724.319L1223.66 736.314C1237.27 754.47 1252.99 768.18 1270.9 777.034L1279.76 759.104ZM1239.66 724.319C1227.5 708.085 1220.22 691.809 1217.41 675.459L1197.7 678.839C1201.13 698.811 1209.92 717.98 1223.66 736.314L1239.66 724.319ZM1217.42 675.504C1214.65 658.854 1216.41 643.182 1222.63 628.256L1204.16 620.565C1196.45 639.075 1194.32 658.562 1197.7 678.793L1217.42 675.504ZM1222.64 628.221C1228.85 613.158 1239.73 599.549 1255.83 587.483L1243.83 571.48C1225.36 585.323 1211.95 601.667 1204.15 620.6L1222.64 628.221ZM1255.83 587.483C1274.21 573.705 1292.07 567.178 1309.55 566.938L1309.28 546.94C1286.68 547.249 1264.82 555.75 1243.83 571.48L1255.83 587.483ZM1309.55 566.938C1327.02 566.7 1342.89 572.497 1357.5 584.819L1370.4 569.532C1352.37 554.325 1331.89 546.631 1309.28 546.94L1309.55 566.938ZM1357.95 569.174L1323.62 594.904L1335.62 610.907L1369.95 585.178L1357.95 569.174ZM1335.37 594.72C1325.11 587.522 1313.64 584.235 1301.31 585.123L1302.74 605.071C1310.33 604.525 1317.26 606.444 1323.88 611.091L1335.37 594.72ZM1301.47 585.112C1288.9 585.807 1276.72 591.065 1265.06 599.806L1277.06 615.81C1286.52 608.718 1294.99 605.501 1302.58 605.082L1301.47 585.112ZM1265.06 599.806C1246.41 613.785 1235.55 631.366 1234.25 652.423L1254.21 653.657C1255.08 639.595 1262.1 627.021 1277.06 615.81L1265.06 599.806ZM1234.25 652.349C1232.83 672.837 1240.42 693.14 1255.29 712.983L1271.29 700.988C1258.34 683.703 1253.21 668.042 1254.2 653.731L1234.25 652.349ZM1255.29 712.983C1270.12 732.777 1287.3 745.718 1307.05 749.902L1311.19 730.336C1297.67 727.471 1284.28 718.323 1271.29 700.988L1255.29 712.983ZM1307.21 749.935C1327.07 753.799 1345.99 748.6 1363.42 735.536L1351.43 719.532C1337.81 729.738 1324.53 732.93 1311.03 730.303L1307.21 749.935ZM1363.42 735.536C1380.02 723.098 1390.54 708.208 1392.51 690.678L1372.64 688.445C1371.48 698.754 1365.24 709.179 1351.43 719.532L1363.42 735.536ZM1392.51 690.684C1394.4 673.985 1390.27 657.433 1380.92 641.289L1363.61 651.308C1371.22 664.448 1373.96 676.739 1372.64 688.439L1392.51 690.684ZM1366.27 638.296L1323.78 670.144L1335.78 686.147L1378.27 654.3L1366.27 638.296ZM1337.78 672.148L1320.51 649.103L1304.5 661.098L1321.78 684.143L1337.78 672.148ZM1318.5 663.102L1391.96 608.044L1379.96 592.041L1306.51 647.099L1318.5 663.102ZM1377.96 606.04L1447.23 698.461L1463.24 686.465L1393.96 594.045L1377.96 606.04ZM1449.24 684.461L1420.91 705.693L1432.91 721.696L1461.23 700.465L1449.24 684.461ZM1434.21 706.867L1415.26 686.582L1400.65 700.236L1419.6 720.522L1434.21 706.867ZM1397.96 693.869C1398.45 704.401 1396.55 714.029 1392.36 722.921L1410.45 731.453C1416.1 719.468 1418.57 706.577 1417.94 692.949L1397.96 693.869ZM1392.36 722.921C1388.34 731.442 1380.85 740.216 1369.06 749.057L1381.05 765.061C1394.54 754.95 1404.62 743.809 1410.45 731.453L1392.36 722.921ZM1519.19 644.524L1512.99 652.367L1519.03 657.144L1525.19 652.525L1519.19 644.524ZM1348.83 509.772L1342.84 501.771L1332.45 509.559L1342.63 517.616L1348.83 509.772ZM1381.72 485.122L1388.2 477.507L1382.12 472.328L1375.72 477.121L1381.72 485.122ZM1512.19 596.161L1505.71 603.777L1521.46 592.42L1512.19 596.161ZM1447.5 435.822L1441.5 427.82L1435.35 432.432L1438.22 439.564L1447.5 435.822ZM1481.34 410.452L1487.59 402.643L1481.54 397.806L1475.35 402.45L1481.34 410.452ZM1616.13 518.253L1609.89 526.062L1625.26 514.168L1616.13 518.253ZM1546.16 361.872L1540.16 353.87L1533.77 358.662L1537.03 365.956L1546.16 361.872ZM1579.29 337.041L1588.58 333.349L1583.75 321.197L1573.29 329.04L1579.29 337.041ZM1659.63 539.266L1665.62 547.267L1671.74 542.681L1668.92 535.573L1659.63 539.266ZM1623.14 566.615L1616.96 574.478L1622.99 579.219L1629.13 574.616L1623.14 566.615ZM1496.39 467.037L1502.56 459.173L1473.62 436.433L1487.08 470.693L1496.39 467.037ZM1555.44 617.354L1561.44 625.356L1567.53 620.788L1564.75 613.698L1555.44 617.354ZM1525.4 636.68L1355.04 501.929L1342.63 517.616L1512.99 652.367L1525.4 636.68ZM1354.83 517.774L1387.72 493.124L1375.72 477.121L1342.84 501.771L1354.83 517.774ZM1375.24 492.738L1505.71 603.777L1518.67 588.546L1388.2 477.507L1375.24 492.738ZM1521.46 592.42L1456.77 432.08L1438.22 439.564L1502.91 599.903L1521.46 592.42ZM1453.49 443.824L1487.34 418.454L1475.35 402.45L1441.5 427.82L1453.49 443.824ZM1475.1 418.262L1609.89 526.062L1622.38 510.443L1487.59 402.643L1475.1 418.262ZM1625.26 514.168L1555.29 357.787L1537.03 365.956L1607 522.337L1625.26 514.168ZM1552.16 369.873L1585.28 345.043L1573.29 329.04L1540.16 353.87L1552.16 369.873ZM1569.99 340.734L1650.33 542.958L1668.92 535.573L1588.58 333.349L1569.99 340.734ZM1653.63 531.264L1617.14 558.613L1629.13 574.616L1665.62 547.267L1653.63 531.264ZM1629.31 558.751L1502.56 459.173L1490.21 474.9L1616.96 574.478L1629.31 558.751ZM1487.08 470.693L1546.13 621.011L1564.75 613.698L1505.69 463.38L1487.08 470.693ZM1549.44 609.353L1513.2 636.522L1525.19 652.525L1561.44 625.356L1549.44 609.353ZM1746.23 461.983L1747.19 471.936L1747.19 471.936L1746.23 461.983ZM1696.13 452.668L1691.7 461.633L1691.72 461.644L1691.74 461.655L1696.13 452.668ZM1628.36 361.748L1618.49 363.392L1618.5 363.415L1618.5 363.438L1628.36 361.748ZM1634.19 309.009L1643.42 312.855L1643.43 312.837L1643.44 312.82L1634.19 309.009ZM1730.21 241.538L1730.08 231.539L1730.08 231.539L1730.21 241.538ZM1784.75 261.774L1790.74 269.776L1800.8 262.237L1791.19 254.131L1784.75 261.774ZM1750.42 287.504L1744.67 295.689L1750.61 299.857L1756.42 295.506L1750.42 287.504ZM1722.82 279.696L1723.37 289.681L1723.46 289.676L1723.54 289.67L1722.82 279.696ZM1665.02 337.639L1675 338.33L1675 338.293L1675 338.255L1665.02 337.639ZM1729.92 424.718L1727.85 434.501L1727.93 434.518L1728.01 434.534L1729.92 424.718ZM1803.37 374.16L1793.44 373.037L1793.44 373.043L1803.37 374.16ZM1793.07 330.897L1801.72 325.887L1796.08 316.141L1787.07 322.895L1793.07 330.897ZM1750.58 362.744L1742.57 368.742L1748.57 376.744L1756.57 370.746L1750.58 362.744ZM1733.3 339.699L1727.31 331.697L1719.3 337.695L1725.3 345.697L1733.3 339.699ZM1806.76 284.641L1814.76 278.643L1808.76 270.642L1800.76 276.639L1806.76 284.641ZM1876.03 377.062L1882.03 385.064L1890.03 379.066L1884.03 371.064L1876.03 377.062ZM1847.71 398.293L1840.4 405.12L1846.52 411.676L1853.7 406.295L1847.71 398.293ZM1828.75 378.008L1836.06 371.18L1817.51 351.331L1818.76 378.468L1828.75 378.008ZM1822.2 411.786L1831.25 416.051L1831.25 416.051L1822.2 411.786ZM1789.85 433.656C1775.26 444.593 1760.43 450.556 1745.26 452.03L1747.19 471.936C1766.51 470.06 1784.75 462.473 1801.85 449.66L1789.85 433.656ZM1745.26 452.03C1729.93 453.519 1715.08 450.788 1700.51 443.681L1691.74 461.655C1709.5 470.318 1728.04 473.797 1747.19 471.936L1745.26 452.03ZM1700.56 443.703C1685.92 436.467 1672.52 425.009 1660.46 408.917L1644.46 420.912C1658.07 439.068 1673.78 452.779 1691.7 461.633L1700.56 443.703ZM1660.46 408.917C1648.29 392.684 1641.02 376.408 1638.21 360.057L1618.5 363.438C1621.93 383.41 1630.72 402.578 1644.46 420.912L1660.46 408.917ZM1638.22 360.103C1635.44 343.452 1637.2 327.781 1643.42 312.855L1624.96 305.164C1617.25 323.674 1615.12 343.161 1618.49 363.392L1638.22 360.103ZM1643.44 312.82C1649.65 297.757 1660.53 284.148 1676.62 272.082L1664.63 256.078C1646.16 269.922 1632.75 286.266 1624.95 305.199L1643.44 312.82ZM1676.62 272.082C1695.01 258.303 1712.87 251.776 1730.35 251.537L1730.08 231.539C1707.48 231.848 1685.61 240.349 1664.63 256.078L1676.62 272.082ZM1730.35 251.537C1747.82 251.298 1763.69 257.095 1778.3 269.418L1791.19 254.131C1773.17 238.924 1752.69 231.23 1730.08 231.539L1730.35 251.537ZM1778.75 253.773L1744.42 279.502L1756.42 295.506L1790.74 269.776L1778.75 253.773ZM1756.16 279.319C1745.91 272.12 1734.44 268.834 1722.1 269.722L1723.54 289.67C1731.12 289.124 1738.05 291.043 1744.67 295.689L1756.16 279.319ZM1722.27 269.711C1709.69 270.406 1697.52 275.663 1685.86 284.405L1697.85 300.408C1707.32 293.316 1715.79 290.1 1723.37 289.681L1722.27 269.711ZM1685.86 284.405C1667.21 298.383 1656.34 315.964 1655.04 337.022L1675 338.255C1675.87 324.194 1682.9 311.62 1697.85 300.408L1685.86 284.405ZM1655.05 336.948C1653.63 357.436 1661.21 377.739 1676.09 397.582L1692.09 385.587C1679.13 368.301 1674.01 352.641 1675 338.33L1655.05 336.948ZM1676.09 397.582C1690.92 417.375 1708.09 430.316 1727.85 434.501L1731.99 414.935C1718.46 412.07 1705.08 402.922 1692.09 385.587L1676.09 397.582ZM1728.01 434.534C1747.87 438.398 1766.79 433.199 1784.22 420.134L1772.22 404.131C1758.61 414.337 1745.33 417.528 1731.83 414.902L1728.01 434.534ZM1784.22 420.134C1800.81 407.696 1811.34 392.807 1813.31 375.277L1793.44 373.043C1792.28 383.353 1786.04 393.778 1772.22 404.131L1784.22 420.134ZM1813.31 375.283C1815.2 358.583 1811.07 342.032 1801.72 325.887L1784.41 335.907C1792.02 349.047 1794.76 361.338 1793.44 373.037L1813.31 375.283ZM1787.07 322.895L1744.58 354.742L1756.57 370.746L1799.06 338.899L1787.07 322.895ZM1758.58 356.747L1741.3 333.701L1725.3 345.697L1742.57 368.742L1758.58 356.747ZM1739.3 347.701L1812.76 292.643L1800.76 276.639L1727.31 331.697L1739.3 347.701ZM1798.76 290.639L1868.03 383.059L1884.03 371.064L1814.76 278.643L1798.76 290.639ZM1870.03 369.06L1841.71 390.291L1853.7 406.295L1882.03 385.064L1870.03 369.06ZM1855.01 391.466L1836.06 371.18L1821.44 384.835L1840.4 405.12L1855.01 391.466ZM1818.76 378.468C1819.25 389 1817.35 398.627 1813.16 407.52L1831.25 416.051C1836.9 404.067 1839.37 391.176 1838.74 377.548L1818.76 378.468ZM1813.16 407.52C1809.14 416.04 1801.65 424.815 1789.85 433.656L1801.85 449.66C1815.34 439.548 1825.42 428.408 1831.25 416.051L1813.16 407.52Z" fill="white" fill-opacity="0.04" mask="url(#path-7-outside-3_571_810)"/>
</g>
<defs>
<linearGradient id="paint0_linear_571_810" x1="960" y1="0" x2="960" y2="600" gradientUnits="userSpaceOnUse">
<stop stop-color="#5B93C7"/>
<stop offset="1" stop-color="#9DBEDD"/>
</linearGradient>
<linearGradient id="paint1_linear_571_810" x1="960" y1="0" x2="960" y2="600" gradientUnits="userSpaceOnUse">
<stop stop-color="#5B93C7"/>
<stop offset="1" stop-color="#9DBEDD"/>
</linearGradient>
</defs>
</svg>
